<svg width="76" height="93" viewBox="0 0 76 93" fill="none" xmlns="http://www.w3.org/2000/svg">
<path d="M59.9668 62.7647L53.3803 61.3974L61.7177 21.2862C62.0279 19.1831 61.5658 17.0387 60.4171 15.2499C49.9203 0.717884 32.8453 6.62076 30.2274 19.1769L22.7238 55.0276L16.1372 53.6519L24.5497 13.2823C24.9831 11.1939 25.8761 9.2282 27.1639 7.52793C28.4518 5.82767 30.102 4.43552 31.9949 3.45255C53.2052 -7.47776 71.0056 9.51383 67.3788 26.9306L59.9668 62.7647Z" fill="#E0E0E0"/>
<path d="M59.9671 62.7646C59.9671 62.7646 60.0089 62.5145 60.1089 62.0476C60.209 61.5807 60.3424 60.8721 60.5258 59.9633L62.1933 51.9844C62.9103 48.5244 63.7774 44.2973 64.7862 39.3866L66.4537 31.5328C66.9706 28.7481 67.8293 25.83 67.8627 22.6785C67.9128 19.3792 67.2114 16.1119 65.8117 13.1239C65.6282 12.7403 65.4532 12.3401 65.2614 11.9566L64.5944 10.8311C64.1402 10.077 63.6419 9.35035 63.102 8.65501C62.8352 8.28817 62.5184 7.97135 62.2266 7.62951C61.9348 7.28768 61.6513 6.93751 61.3095 6.63737C60.6615 5.99133 59.9707 5.38968 59.2418 4.83649C57.7627 3.67897 56.1437 2.71255 54.4228 1.9601L53.0805 1.45985L52.3218 1.20973L51.6214 1.02631L50.2124 0.659463C49.7288 0.551077 49.2453 0.501052 48.7617 0.417679C44.74 -0.181135 40.6311 0.344029 36.8893 1.93509C33.9187 3.19728 31.2601 5.09381 29.0998 7.49178C26.9395 9.88975 25.3297 12.7311 24.3832 15.8168C23.7746 17.9429 23.3827 20.1689 22.9075 22.3867C21.0566 31.2827 19.1307 40.4955 17.1714 49.9001C16.9046 51.159 16.6461 52.4013 16.3877 53.6602L16.2626 53.4685L22.8492 54.8441L22.6657 54.9692C24.1498 47.8407 25.6088 40.8623 27.0178 34.1257C27.7237 30.7407 28.4213 27.4058 29.1105 24.1209L30.1277 19.2352C30.4848 17.6214 31.0687 16.0663 31.8619 14.6162C33.4689 11.8178 35.8879 9.57327 38.7986 8.17978C39.1571 8.02137 39.4989 7.82961 39.8741 7.70455L40.9746 7.32103C41.7122 7.09925 42.4644 6.92931 43.2257 6.81245C43.9819 6.69754 44.7453 6.63625 45.5102 6.62903C45.8853 6.62903 46.2688 6.62903 46.644 6.67905H47.2026L47.7613 6.77076C49.2286 6.97073 50.6602 7.37776 52.0133 7.97969C53.3207 8.58178 54.5452 9.34956 55.6567 10.2641C57.7822 12.0584 59.4005 14.3782 60.3507 16.9924C61.2685 19.439 61.5357 22.082 61.1261 24.6628L60.976 25.5882C60.9176 25.8884 60.8509 26.1885 60.7925 26.4887L60.4174 28.2729C60.1673 29.4484 59.9255 30.599 59.6921 31.7329C58.7416 36.2518 57.8662 40.4121 57.0824 44.1556C55.4983 51.6592 54.2644 57.4954 53.4473 61.4056L53.4056 61.3473L58.4081 62.4061L59.6253 62.6729L60.0255 62.7646L59.6337 62.6896L58.4248 62.4562L53.4223 61.439V61.389L56.9741 44.1306C57.7494 40.3788 58.6415 36.2184 59.5503 31.6912C59.7837 30.5657 60.0256 29.4068 60.2673 28.2312C60.3841 27.6476 60.5091 27.0473 60.6341 26.4553C60.7008 26.1552 60.7592 25.855 60.8259 25.5466C60.8926 25.2381 60.9176 24.9379 60.9676 24.6378C61.3671 22.0952 61.0999 19.4925 60.1923 17.0841C59.2517 14.5129 57.6534 12.2332 55.5567 10.4726C54.4573 9.57354 53.2468 8.81976 51.9549 8.22981C50.6267 7.64446 49.2238 7.24604 47.7862 7.0459L47.236 6.96253H46.6774C46.3105 6.96253 45.9437 6.9125 45.5685 6.96253C44.0597 6.97955 42.5608 7.20971 41.1163 7.64619L40.0325 8.02971C39.6735 8.16471 39.3227 8.32061 38.982 8.4966C36.1226 9.86372 33.7489 12.0716 32.1787 14.8247C31.4071 16.2453 30.8454 17.7702 30.5112 19.3519C30.1777 20.9693 29.8386 22.5979 29.494 24.2376C28.8104 27.5225 28.1156 30.8575 27.4097 34.2424L23.0659 55.0859V55.2443H22.9075L16.321 53.8687H16.1709V53.7102C16.4294 52.468 16.6878 51.209 16.9546 49.9501C18.9222 40.5205 20.8398 31.3077 22.699 22.4367C23.1743 20.2106 23.5328 18.0012 24.1831 15.8335C24.8603 13.7146 25.8283 11.7 27.0595 9.84726C29.4989 6.2644 32.9209 3.462 36.9143 1.77667C40.7046 0.169845 44.8653 -0.358174 48.9368 0.25093C49.4287 0.334304 49.9206 0.392666 50.4042 0.492715L52.0717 0.92626L52.9638 1.20973L54.2977 1.70997L54.9147 1.96844C56.5459 2.70768 58.0826 3.63977 59.4919 4.74478C60.2228 5.31097 60.9188 5.92071 61.5763 6.57067C61.8393 6.8569 62.0897 7.15455 62.3266 7.46277C62.6185 7.81294 62.9436 8.12976 63.2021 8.4966C63.7511 9.20239 64.2578 9.94016 64.7195 10.706L65.3864 11.8399C65.5865 12.2318 65.7533 12.6736 65.9451 13.0238C67.3511 16.0478 68.0496 19.3525 67.9877 22.6868C67.9877 25.8717 67.079 28.7981 66.5537 31.5912C66.0284 34.3842 65.4115 37.0105 64.8862 39.47C63.8524 44.3807 62.952 48.6411 62.2266 52.0678C61.5012 55.4944 60.926 58.1958 60.5591 60.0133L60.1172 62.0726C60.0255 62.5395 59.9671 62.7646 59.9671 62.7646Z" fill="#263238"/>
<path d="M13.2954 28.6795L72.1359 40.9398C72.9455 41.1085 73.6549 41.5919 74.1081 42.2836C74.5613 42.9754 74.7211 43.8188 74.5524 44.6284L65.2564 89.2424C65.1031 89.9784 64.6637 90.6233 64.0348 91.0353C63.4059 91.4473 62.6391 91.5926 61.9031 91.4393L2.78515 79.1212L13.2954 28.6795Z" fill="#455A64"/>
<g opacity="0.3">
<path d="M13.3262 28.7269L71.8565 40.9226C72.7484 41.1084 73.5299 41.6409 74.0291 42.403C74.5283 43.165 74.7044 44.0942 74.5186 44.986L65.3519 88.9797C65.1814 89.7979 64.6928 90.5149 63.9936 90.973C63.2945 91.431 62.442 91.5926 61.6237 91.4221L2.81592 79.1686L13.3262 28.7269Z" fill="black"/>
</g>
<path d="M13.7963 28.7857L64.5481 39.3606C65.427 39.5437 66.1972 40.0685 66.6891 40.8194C67.1811 41.5704 67.3546 42.486 67.1715 43.3649L58.1969 86.4362C57.9714 87.5186 57.3251 88.467 56.4003 89.0729C55.4755 89.6787 54.3479 89.8924 53.2655 89.6669L3.42786 79.2825C2.97768 79.1887 2.55036 79.0071 2.17035 78.7482C1.79033 78.4893 1.46506 78.158 1.21306 77.7733C0.961063 77.3887 0.78728 76.9582 0.701664 76.5064C0.616049 76.0546 0.620268 75.5903 0.71407 75.1401L9.82466 31.4158C10.0066 30.5426 10.5258 29.7764 11.2695 29.2839C12.0133 28.7914 12.9213 28.6124 13.7963 28.7857Z" fill="#455A64"/>
<g opacity="0.3">
<path d="M42.8251 56.5368C43.0218 55.594 43.0273 54.6213 42.8411 53.6764C42.655 52.7315 42.281 51.8335 41.7414 51.0358C41.2018 50.2381 40.5076 49.5568 39.6998 49.0323C38.8921 48.5079 37.9872 48.1509 37.0389 47.9826C35.2093 47.6811 33.3336 48.0884 31.7938 49.1217C30.2541 50.1549 29.1661 51.7363 28.7516 53.5436C28.423 55.0808 28.6081 56.6833 29.2783 58.1051C29.9486 59.5269 31.0669 60.6894 32.4617 61.4141L25.8335 70.1767L37.931 72.9281L36.2636 62.2145C37.8274 62.1152 39.3157 61.5062 40.5007 60.4808C41.6856 59.4555 42.5021 58.0701 42.8251 56.5368Z" fill="black"/>
</g>
<path d="M58.3993 85.7926C58.3159 85.7926 60.1168 76.9884 62.4179 66.1664C64.719 55.3445 66.6616 46.5736 66.745 46.5902C66.8284 46.6069 65.0275 55.4029 62.7264 66.2415C60.4253 77.0801 58.4826 85.8093 58.3993 85.7926Z" fill="#263238"/>
<path d="M54.2975 38.8447C54.2975 38.9281 46.5188 37.4857 36.9641 35.6265C27.4095 33.7672 19.664 32.1915 19.6807 32.1081C19.6974 32.0247 27.4595 33.4587 37.0225 35.318C46.5855 37.1772 54.3142 38.728 54.2975 38.8447Z" fill="white"/>
<path d="M27.7262 57.3453C27.7262 57.3453 27.6262 57.1786 27.5261 56.8451C27.3829 56.3759 27.2934 55.8921 27.2593 55.4027C27.1275 53.7689 27.4907 52.1333 28.3015 50.7088C29.1263 49.2932 30.3541 48.1554 31.8282 47.4405C32.2718 47.2282 32.7354 47.0606 33.2122 46.9403C33.3849 46.8865 33.565 46.8612 33.7458 46.8652C33.7458 46.9236 33.0038 47.0737 31.9283 47.6406C30.5294 48.3774 29.3688 49.4968 28.582 50.8682C27.7952 52.2396 27.4145 53.8065 27.4845 55.386C27.5262 56.6033 27.7846 57.3286 27.7262 57.3453Z" fill="white"/>
<path d="M29.8106 61.239C29.7522 61.3057 29.3687 61.0472 28.9769 60.6637C28.585 60.2802 28.2849 59.9217 28.3432 59.83C28.4016 59.7383 28.7851 60.0301 29.177 60.4053C29.5688 60.7805 29.869 61.239 29.8106 61.239Z" fill="white"/>
<path d="M47.6109 1.82678C47.6109 1.82678 47.1774 1.82678 46.3937 1.74341C45.2823 1.67392 44.1671 1.69344 43.0587 1.80177C39.4103 2.13156 35.9305 3.49063 33.0243 5.72084C30.1181 7.95105 27.905 10.9607 26.6424 14.3996C26.2555 15.4354 25.9516 16.5004 25.7336 17.5844C25.5836 18.3515 25.5169 18.785 25.4919 18.785C25.4793 18.6798 25.4793 18.5734 25.4919 18.4682C25.4919 18.2598 25.4919 17.9513 25.6003 17.5594C25.7781 16.4578 26.0572 15.3749 26.434 14.3245C27.6599 10.8099 29.8869 7.73049 32.8408 5.46547C35.7946 3.20046 39.3464 1.84871 43.0587 1.57666C44.1694 1.48717 45.2862 1.50392 46.3937 1.62668C46.7855 1.62668 47.0857 1.72673 47.2941 1.75175C47.4027 1.7615 47.5094 1.78677 47.6109 1.82678Z" fill="white"/>
<path d="M24.0998 24.171C24.0789 23.5389 24.1634 22.9077 24.3499 22.3034C24.4327 21.6795 24.6186 21.0737 24.9002 20.5109C24.926 21.1399 24.8443 21.7686 24.6584 22.3701C24.5759 22.9978 24.387 23.6068 24.0998 24.171Z" fill="white"/>
</svg>
